<svg xmlns="http://www.w3.org/2000/svg" version="1.1" viewBox="0 0 1800 1800" fill="currentColor">
    <path fill="#004efd" transform="scale(1.3) translate(-200, -200)" d="M574.67,947.26c-2.22-15.43-3.37-31.21-3.37-47.26s1.15-31.83,3.37-47.26c1.85-12.86,4.44-25.47,7.74-37.79h-182.43c-4.69,27.65-7.12,56.06-7.12,85.05,0,50.69,7.45,99.66,21.29,145.85l-141.84,87.09c30.72,82.77,77.34,157.8,136.18,221.39l141.79-87.07c45.88,43.74,99.97,78.92,159.69,103.07v-202.08c-71.76-50.94-122.21-129.92-135.31-221ZM1090.02,429.66c-19.44-7.88-39.5-14.57-60.06-20v-166.4c-42.03-8.27-85.5-12.61-129.96-12.61s-87.93,4.34-129.96,12.61v166.4c-20.55,5.43-40.61,12.12-60.06,20-28.62,11.56-55.94,25.68-81.7,42.05h543.44c-25.76-16.38-53.08-30.49-81.7-42.05Z M1407.14,900c0-28.99-2.43-57.4-7.12-85.05h-182.41c3.29,12.32,5.88,24.91,7.74,37.77,2.22,15.43,3.37,31.23,3.37,47.28s-1.15,31.85-3.37,47.28c-13.13,91.06-63.57,170.06-135.33,220.98v202.08c59.73-24.15,113.81-59.33,159.69-103.07l141.79,87.07c58.84-63.59,105.46-138.63,136.18-221.39l-141.84-87.09c13.85-46.19,21.29-95.15,21.29-145.85Z M770.04,1556.74c42.03,8.27,85.5,12.61,129.96,12.61s87.93-4.34,129.96-12.61v-741.79h-259.93v741.79Z M415.34,754.89h969.31l1.19-.74,141.84-87.09c-17.78-47.94-40.9-93.28-68.65-135.29-13.76-20.86-28.66-40.92-44.62-60.05-7.39-8.89-15.02-17.57-22.9-26.05l-42.42,26.05-97.79,60.05-1.58.97c-.33-.33-.68-.66-1.01-.97h-697.41c-.33.31-.68.64-1.01.97l-1.58-.97-97.79-60.05-42.42-26.05c-7.88,8.48-15.51,17.16-22.9,26.05-15.97,19.13-30.86,39.19-44.62,60.05-27.75,42.01-50.88,87.36-68.65,135.29l141.84,87.09,1.19.74Z"/>
</svg>