<svg xmlns="http://www.w3.org/2000/svg" version="1.1" viewBox="0 0 2400 600">
    <g class="icon">
        <path fill="#004efd"
              d="M209.9,313.16c-.62-4.3-.94-8.69-.94-13.16s.32-8.86.94-13.16c.52-3.58,1.24-7.09,2.15-10.53h-50.81c-1.31,7.7-1.98,15.61-1.98,23.69,0,14.12,2.07,27.76,5.93,40.62l-39.5,24.25c8.55,23.05,21.54,43.95,37.93,61.66l39.49-24.25c12.78,12.18,27.84,21.98,44.48,28.71v-56.28c-19.99-14.19-34.04-36.18-37.69-61.55ZM353.43,169.01c-5.41-2.19-11-4.06-16.73-5.57v-46.34c-11.71-2.3-23.81-3.51-36.2-3.51s-24.49,1.21-36.2,3.51v46.34c-5.72,1.51-11.31,3.37-16.73,5.57-7.97,3.22-15.58,7.15-22.75,11.71h151.35c-7.17-4.56-14.78-8.49-22.75-11.71ZM441.75,300c0-8.07-.68-15.99-1.98-23.69h-50.8c.92,3.43,1.64,6.94,2.15,10.52.62,4.3.94,8.7.94,13.17s-.32,8.87-.94,13.17c-3.66,25.36-17.71,47.36-37.69,61.54v56.28c16.63-6.73,31.7-16.52,44.48-28.71l39.49,24.25c16.39-17.71,29.37-38.61,37.93-61.66l-39.5-24.25c3.86-12.86,5.93-26.5,5.93-40.62ZM264.31,482.9c11.71,2.3,23.81,3.51,36.2,3.51s24.49-1.21,36.2-3.51v-206.59h-72.39v206.59ZM165.53,259.59h269.96l.33-.21,39.5-24.25c-4.95-13.35-11.39-25.98-19.12-37.68-3.83-5.81-7.98-11.4-12.43-16.73-2.06-2.48-4.18-4.89-6.38-7.25l-11.81,7.25-27.23,16.73-.44.27c-.09-.09-.19-.18-.28-.27h-194.23c-.09.09-.19.18-.28.27l-.44-.27-27.23-16.73-11.81-7.25c-2.19,2.36-4.32,4.78-6.38,7.25-4.45,5.33-8.59,10.92-12.43,16.73-7.73,11.7-14.17,24.33-19.12,37.68l39.5,24.25.33.21Z"/>
    </g>

    <g class="text">
        <g class="word-torque" fill="#001b5a">
            <path class="letter-1"
                  d="M619.25,241.67v27.8h-37.75v114.67h-34.7v-114.67h-37.75v-27.8h110.2Z"/>
            <path class="letter-2"
                  d="M658.31,378.66c-8.86-4.73-15.83-11.5-20.9-20.3-5.07-8.79-7.61-19.08-7.61-30.85s2.57-21.88,7.71-30.75c5.14-8.86,12.18-15.66,21.11-20.4,8.93-4.73,18.94-7.1,30.04-7.1s21.11,2.37,30.04,7.1c8.93,4.74,15.96,11.54,21.11,20.4,5.14,8.86,7.71,19.11,7.71,30.75s-2.61,21.89-7.81,30.75c-5.21,8.86-12.31,15.66-21.31,20.4-9,4.74-19.05,7.1-30.14,7.1s-21.08-2.37-29.94-7.1ZM705.2,348.42c4.67-4.87,7-11.84,7-20.9s-2.27-16.03-6.8-20.9c-4.53-4.87-10.12-7.31-16.74-7.31s-12.38,2.4-16.84,7.2c-4.46,4.8-6.7,11.81-6.7,21.01s2.2,16.03,6.6,20.9c4.4,4.87,9.91,7.31,16.54,7.31s12.28-2.44,16.95-7.31Z"/>
            <path class="letter-3"
                  d="M815.9,275.06c6.09-3.58,12.85-5.38,20.3-5.38v36.73h-9.54c-8.66,0-15.15,1.86-19.48,5.58-4.33,3.72-6.49,10.25-6.49,19.58v52.56h-34.71v-113.25h34.71v18.87c4.06-6.22,9.13-11.13,15.22-14.71Z"/>
            <path class="letter-4"
                  d="M852.94,297.69c4.67-8.79,10.96-15.66,18.87-20.6,7.91-4.94,16.54-7.41,25.88-7.41,7.17,0,13.6,1.25,19.28,3.75,5.68,2.51,10.28,5.99,13.8,10.45v-12.99h34.71v167.23h-34.71v-68.19c-3.93,4.74-8.7,8.52-14.31,11.37-5.62,2.84-12.01,4.26-19.18,4.26-9.2,0-17.73-2.44-25.57-7.31-7.85-4.87-14.1-11.7-18.77-20.5-4.67-8.79-7-18.8-7-30.04s2.33-21.24,7-30.04ZM927.22,312.2c-2.37-4.13-5.45-7.24-9.23-9.34-3.79-2.1-7.78-3.15-11.97-3.15s-7.99,1.05-11.77,3.15c-3.79,2.1-6.9,5.24-9.34,9.44-2.44,4.2-3.65,9.34-3.65,15.42s1.22,11.2,3.65,15.32c2.44,4.13,5.55,7.24,9.34,9.34,3.79,2.1,7.71,3.15,11.77,3.15s8.02-1.05,11.87-3.15c3.86-2.1,6.97-5.24,9.34-9.44,2.37-4.19,3.55-9.34,3.55-15.42s-1.19-11.19-3.55-15.32Z"/>
            <path class="letter-5"
                  d="M1102.47,270.9v113.25h-34.71v-15.42c-3.52,5.01-8.29,9.03-14.31,12.08-6.02,3.04-12.68,4.57-19.99,4.57-8.66,0-16.3-1.93-22.93-5.78-6.63-3.86-11.77-9.44-15.42-16.74-3.65-7.31-5.48-15.9-5.48-25.78v-66.16h34.5v61.49c0,7.58,1.96,13.46,5.89,17.66,3.92,4.2,9.2,6.29,15.83,6.29s12.11-2.1,16.03-6.29c3.92-4.19,5.89-10.08,5.89-17.66v-61.49h34.71Z"/>
            <path class="letter-6"
                  d="M1233.57,335.84h-78.54c.54,7.04,2.81,12.41,6.8,16.13,3.99,3.72,8.9,5.58,14.71,5.58,8.66,0,14.68-3.65,18.06-10.96h36.94c-1.9,7.44-5.31,14.14-10.25,20.09-4.94,5.96-11.13,10.62-18.57,14-7.44,3.38-15.76,5.07-24.96,5.07-11.1,0-20.97-2.37-29.63-7.1-8.66-4.73-15.42-11.5-20.3-20.3-4.87-8.79-7.31-19.08-7.31-30.85s2.4-22.05,7.2-30.85c4.8-8.79,11.53-15.56,20.19-20.3,8.66-4.73,18.6-7.1,29.83-7.1s20.7,2.3,29.22,6.9c8.52,4.6,15.19,11.16,19.99,19.69,4.8,8.52,7.2,18.47,7.2,29.83,0,3.25-.2,6.63-.61,10.15ZM1198.66,316.56c0-5.95-2.03-10.69-6.09-14.21-4.06-3.52-9.13-5.28-15.22-5.28s-10.72,1.69-14.71,5.07c-3.99,3.38-6.46,8.19-7.41,14.41h43.43Z"/>
        </g>

        <g class="word-link" fill="#001b5a">
            <path class="letter-1" d="M1287.15,357.35h45.46v26.79h-80.16v-142.47h34.7v115.68Z"/>
            <path class="letter-2"
                  d="M1351.79,253.75c-3.86-3.58-5.78-8.02-5.78-13.29s1.93-9.91,5.78-13.5c3.86-3.58,8.83-5.38,14.92-5.38s10.86,1.79,14.71,5.38c3.86,3.59,5.79,8.09,5.79,13.5s-1.93,9.71-5.79,13.29c-3.86,3.59-8.76,5.38-14.71,5.38s-11.06-1.79-14.92-5.38ZM1383.95,270.9v113.25h-34.7v-113.25h34.7Z"/>
            <path class="letter-3"
                  d="M1509.88,282.57c7.92,8.59,11.87,20.4,11.87,35.42v66.16h-34.5v-61.49c0-7.58-1.96-13.46-5.89-17.66-3.93-4.19-9.2-6.29-15.83-6.29s-11.91,2.1-15.83,6.29c-3.93,4.2-5.89,10.08-5.89,17.66v61.49h-34.7v-113.25h34.7v15.02c3.52-5,8.25-8.96,14.21-11.87,5.95-2.91,12.65-4.36,20.09-4.36,13.26,0,23.85,4.3,31.76,12.89Z"/>
            <path class="letter-4"
                  d="M1615.12,384.14l-34.5-47.49v47.49h-34.7v-150.18h34.7v83.01l34.3-46.07h42.82l-47.08,56.83,47.49,56.42h-43.03Z"/>
        </g>

        <g class="word-media" fill="#939598">
            <path class="letter-m"
                  d="M1827.82,245.96v140.04h-14.21v-111.83l-49.93,111.83h-10.35l-49.93-111.42v111.42h-14.21v-140.04h15.02l54.19,121.37,54.19-121.37h15.22Z"/>
            <path class="letter-e"
                  d="M1959.94,336.07h-91.94c.4,8.39,2.44,15.56,6.09,21.51,3.65,5.96,8.45,10.45,14.41,13.5,5.95,3.04,12.45,4.57,19.48,4.57,9.2,0,16.95-2.23,23.24-6.7,6.29-4.46,10.45-10.48,12.48-18.06h15.02c-2.71,10.83-8.49,19.65-17.35,26.49-8.86,6.83-19.99,10.25-33.39,10.25-10.42,0-19.76-2.33-28.01-7-8.25-4.67-14.71-11.3-19.38-19.89-4.67-8.59-7-18.64-7-30.14s2.3-21.58,6.9-30.24c4.6-8.66,11.02-15.29,19.28-19.89,8.25-4.6,17.66-6.9,28.21-6.9s19.79,2.3,27.7,6.9c7.92,4.6,14,10.79,18.27,18.57,4.26,7.78,6.39,16.41,6.39,25.88,0,4.87-.14,8.59-.4,11.16ZM1940.96,303.4c-3.45-5.82-8.15-10.21-14.1-13.19-5.96-2.97-12.45-4.47-19.48-4.47-10.55,0-19.55,3.38-26.99,10.15-7.44,6.77-11.57,16.31-12.38,28.62h77.93c.13-8.25-1.52-15.29-4.97-21.11Z"/>
            <path class="letter-d"
                  d="M1986.73,300.45c4.6-8.59,10.92-15.22,18.98-19.89,8.05-4.67,17.15-7,27.3-7s18.54,2.37,26.38,7.1c7.84,4.74,13.6,10.89,17.25,18.47v-63.32h14.21v150.18h-14.21v-24.76c-3.38,7.71-8.93,14.04-16.64,18.98-7.71,4.94-16.78,7.41-27.2,7.41s-19.25-2.37-27.3-7.1c-8.05-4.73-14.34-11.43-18.87-20.09-4.53-8.66-6.8-18.67-6.8-30.04s2.3-21.34,6.9-29.94ZM2071.16,307.05c-3.65-6.76-8.63-11.97-14.92-15.63-6.29-3.65-13.23-5.48-20.8-5.48s-14.88,1.76-21.11,5.28c-6.22,3.52-11.13,8.63-14.71,15.32-3.59,6.7-5.38,14.65-5.38,23.85s1.79,17.02,5.38,23.85c3.58,6.83,8.49,12.04,14.71,15.63,6.22,3.59,13.26,5.38,21.11,5.38s14.51-1.83,20.8-5.48c6.29-3.65,11.26-8.86,14.92-15.63,3.65-6.76,5.48-14.61,5.48-23.54s-1.83-16.77-5.48-23.54Z"/>
            <path class="letter-i"
                  d="M2123.11,251.24c-2.03-2.03-3.05-4.53-3.05-7.51s1.02-5.44,3.05-7.41c2.03-1.96,4.46-2.94,7.31-2.94s5.28.98,7.31,2.94c2.03,1.96,3.04,4.43,3.04,7.41s-1.02,5.48-3.04,7.51c-2.03,2.03-4.47,3.04-7.31,3.04s-5.28-1.01-7.31-3.04ZM2137.52,275.19v110.81h-14.21v-110.81h14.21Z"/>
            <path class="letter-a"
                  d="M2170.09,300.45c4.53-8.59,10.82-15.22,18.87-19.89,8.05-4.67,17.15-7,27.3-7s19.65,2.44,27.3,7.31c7.64,4.87,13.16,11.1,16.54,18.67v-24.35h14.21v110.81h-14.21v-24.56c-3.52,7.58-9.1,13.84-16.74,18.77-7.65,4.94-16.74,7.41-27.3,7.41-10.01,0-19.04-2.37-27.09-7.1-8.05-4.73-14.34-11.43-18.87-20.09-4.53-8.66-6.8-18.67-6.8-30.04s2.26-21.34,6.8-29.94ZM2254.62,307.05c-3.65-6.76-8.63-11.97-14.92-15.63-6.29-3.65-13.23-5.48-20.8-5.48s-14.88,1.76-21.11,5.28c-6.22,3.52-11.13,8.63-14.71,15.32-3.59,6.7-5.38,14.65-5.38,23.85s1.79,17.02,5.38,23.85c3.58,6.83,8.49,12.04,14.71,15.63,6.22,3.59,13.26,5.38,21.11,5.38s14.51-1.83,20.8-5.48c6.29-3.65,11.26-8.86,14.92-15.63,3.65-6.76,5.48-14.61,5.48-23.54s-1.83-16.77-5.48-23.54Z"/>
        </g>
    </g>
</svg>